<?xml version="1.0" encoding="UTF-8" standalone="no"?>
<svg
   id="svg"
   width="22"
   height="22"
   version="1.1"
   sodipodi:docname="start-menu.svg"
   inkscape:version="1.2.2 (b0a8486541, 2022-12-01)"
   xmlns:inkscape="http://www.inkscape.org/namespaces/inkscape"
   xmlns:sodipodi="http://sodipodi.sourceforge.net/DTD/sodipodi-0.dtd"
   xmlns="http://www.w3.org/2000/svg"
   xmlns:svg="http://www.w3.org/2000/svg">
  <sodipodi:namedview
     id="namedview3267"
     pagecolor="#ffffff"
     bordercolor="#666666"
     borderopacity="1.0"
     inkscape:showpageshadow="2"
     inkscape:pageopacity="0.0"
     inkscape:pagecheckerboard="0"
     inkscape:deskcolor="#d1d1d1"
     showgrid="false"
     inkscape:zoom="13.75"
     inkscape:cx="0.69090909"
     inkscape:cy="3.6727273"
     inkscape:window-width="1680"
     inkscape:window-height="1026"
     inkscape:window-x="1366"
     inkscape:window-y="0"
     inkscape:window-maximized="1"
     inkscape:current-layer="svg" />
  <defs
     id="defs3249">
    <style
       id="current-color-scheme"
       type="text/css">.ColorScheme-Text { color:#363636; }</style>
  </defs>
  <g
     id="moprius-logo"
     class="ColorScheme-Text"
     transform="matrix(1.0008579,0,0,0.99377228,-324.59255,-507.49842)"
     fill="currentColor">
    <path
       id="path461"
       transform="translate(299,510.36)"
       d="m 36.330261,0.38364152 c -0.0442,0 -0.08847,0.004937 -0.160019,0.0157229 -0.08798,0.0132617 -2.552522,0.41325574 -5.475771,0.88834487 L 25.38067,2.1505044 v 7.1499969 7.1480317 l 0.204902,0.09041 c 0.257134,0.113599 1.434646,0.654284 1.933888,0.888345 4.058932,1.902944 6.875853,3.460408 8.50052,4.699187 0.155843,0.118839 0.295201,0.21619 0.310281,0.21619 0.01508,0 0.154436,-0.09736 0.31028,-0.21619 1.624668,-1.238779 4.441587,-2.796243 8.50052,-4.699187 0.499241,-0.234061 1.676736,-0.774745 1.933888,-0.888345 l 0.204903,-0.09041 V 9.3005013 2.1505044 L 41.966051,1.2877093 C 39.042802,0.81262017 36.57827,0.41262592 36.49028,0.39936443 36.41873,0.38857869 36.374465,0.38364152 36.330261,0.38364152 Z m 0,1.56246498 2.966205,0.4815143 c 1.631339,0.2640528 3.699002,0.599261 4.593715,0.7448733 l 1.625559,0.2633589 0.0059,6.0395658 0.0039,6.0376002 -0.460542,0.21226 c -3.593081,1.656694 -6.464679,3.160866 -8.391239,4.398486 -0.187841,0.120667 -0.344158,0.220616 -0.347358,0.220121 -0.0032,-4.51e-4 -0.103763,-0.06656 -0.224417,-0.145437 -1.853782,-1.211987 -4.854164,-2.790114 -8.504423,-4.47317 l -0.462494,-0.21226 0.0039,-6.0376002 0.0059,-6.0395658 1.625558,-0.2633589 c 0.894849,-0.1456123 2.962377,-0.4808205 4.593716,-0.7448733 z m -3.750689,1.4779543 -0.331746,0.049134 c -0.182396,0.027542 -0.587931,0.089569 -0.899619,0.1375755 -0.31169,0.048006 -0.685528,0.1054678 -0.831318,0.1277487 -0.14579,0.022283 -0.351066,0.055563 -0.45664,0.072719 -0.316804,0.051483 -1.268586,0.1984207 -1.588481,0.2456706 -0.258176,0.038134 -0.300933,0.04853 -0.314183,0.076649 -0.0084,0.017916 -0.02312,2.4606902 -0.03317,5.4283375 -0.01002,2.9676471 -0.02317,5.4066361 -0.02927,5.4204761 -0.0087,0.01977 0.09221,0.07337 0.4703,0.24567 1.010257,0.460395 2.350402,1.086498 3.020846,1.411132 0.72215,0.34967 1.331848,0.64681 1.383578,0.67412 0.0528,0.02783 0.06158,0.02843 0.07611,0.0059 0.02555,-0.03964 9.21e-4,-4.754957 -0.02537,-4.862312 -0.05176,-0.211305 -0.221839,-0.454743 -0.495668,-0.705566 -0.269541,-0.246893 -1.294007,-1.067158 -1.832413,-1.468127 l -0.179533,-0.133645 0.0098,-2.3564724 c 0.0061,-1.2960415 0.01707,-2.3829229 0.02537,-2.4134679 0.02448,-0.090514 0.07188,-0.08024 0.25564,0.053065 0.195432,0.1417744 0.424383,0.3213959 1.166968,0.9138946 0.311019,0.2481589 0.822104,0.6467549 1.133793,0.8844142 0.311689,0.2376592 0.693035,0.528905 0.848881,0.6485703 0.690035,0.529846 2.022855,1.5121804 2.158304,1.5899801 0.06931,0.039865 0.0955,0.045203 0.218563,0.045203 0.123058,0 0.149252,-0.00539 0.218562,-0.045203 0.135423,-0.077791 1.468268,-1.0601338 2.158305,-1.5899801 C 38.862973,7.759877 39.244321,7.4686316 39.556009,7.2309723 39.8677,6.993313 40.37878,6.5947168 40.689802,6.3465581 42.050363,5.2609863 42.07569,5.2437973 42.11241,5.3795987 c 0.0083,0.030547 0.01937,1.1174262 0.02537,2.4134679 l 0.01171,2.3564724 -0.181485,0.133645 c -0.538406,0.400969 -1.562873,1.221234 -1.832412,1.468127 -0.273845,0.250837 -0.443949,0.494303 -0.495669,0.705566 -0.02349,0.09541 -0.0516,4.771315 -0.02927,4.848555 l 0.01171,0.04127 0.0683,-0.03341 c 0.06106,-0.03136 0.759714,-0.372041 1.383579,-0.67412 0.670443,-0.324634 2.012541,-0.950737 3.022797,-1.411132 0.378088,-0.1723 0.477248,-0.2259 0.468348,-0.24567 -0.0061,-0.01383 -0.01921,-2.45283 -0.02927,-5.4204761 C 44.526092,6.5942475 44.511437,4.1514744 44.502937,4.1335574 44.48969,4.1054395 44.44693,4.0950402 44.188753,4.0569082 43.868859,4.0096588 42.917077,3.8627206 42.600272,3.8112376 42.4947,3.7940816 42.289423,3.7608001 42.143633,3.7385191 41.997841,3.7162361 41.624005,3.6587774 41.312315,3.6107704 41.000626,3.5627634 40.595091,3.5007369 40.412696,3.4731949 l -0.331747,-0.049134 -0.140504,0.066822 c -0.204803,0.095889 -0.390674,0.212443 -0.630319,0.398969 -0.334013,0.2599772 -1.109497,0.8854098 -1.752403,1.4111319 -0.949715,0.7765957 -1.015649,0.8286907 -1.061589,0.8549337 -0.05944,0.033957 -0.272317,0.033957 -0.331747,0 C 36.11845,6.1296728 36.052506,6.0775806 35.102798,5.3009841 34.459888,4.7752622 33.684408,4.1498294 33.350395,3.8898522 33.110752,3.7033262 32.924879,3.5867721 32.720077,3.4908832 Z" />
  </g>
</svg>
